<svg xmlns="http://www.w3.org/2000/svg" xmlns:xlink="http://www.w3.org/1999/xlink" width="80" height="80" viewBox="-650 -350 2500 2500">
  <defs>
    <style>
      .cls-1, .cls-5 {
        fill: none;
      }

      .cls-1, .cls-2, .cls-6 {
        stroke: #131313;
      }

      .cls-1, .cls-6 {
        stroke-width: 70px;
      }

      .cls-1, .cls-2, .cls-3, .cls-4, .cls-5, .cls-6 {
        fill-rule: evenodd;
      }

      .cls-2, .cls-6 {
        fill: #fff;
      }

      .cls-2 {
        stroke-width: 60px;
      }

      .cls-3, .cls-4 {
        fill: #636edf;
      }

      .cls-3 {
        stroke: #636edf;
        stroke-width: 18.33px;
      }

      .cls-5 {
        stroke: #000;
        stroke-width: 50px;
      }
    </style>
    <clipPath id="clip-path">
      <rect width="1200" height="1800"/>
    </clipPath>
  </defs>
  <g clip-path="url(#clip-path)">
    <path class="cls-1" d="M266.025,171.008h679.95a92,92,0,0,1,92.005,92V1610.99a92,92,0,0,1-92,92H266.025a92,92,0,0,1-92-92V263.008A92,92,0,0,1,266.025,171.008Z"/>
    <path id="Line_1" data-name="Line 1" class="cls-2" d="M490.684,302.214v-0.428H722.316v0.428H490.684Z"/>
    <path class="cls-3" d="M499.362,1151.62c-8.086,6.56-20.71,5.63-28.2-2.07l-228.616-235.1c-7.486-7.7-7-19.253,1.087-25.809s20.71-5.629,28.2,2.069l228.616,235.1C507.935,1133.51,507.448,1145.06,499.362,1151.62Z"/>
    <path class="cls-3" d="M243.33,912.267c8.051,6.583,20.66,5.659,28.164-2.065L500.66,674.325c7.5-7.723,7.061-19.321-.99-25.905s-20.66-5.658-28.164,2.065L242.34,886.362C234.836,894.086,235.279,905.684,243.33,912.267Z"/>
    <path class="cls-3" d="M719.638,1151.62c8.086,6.56,20.71,5.63,28.195-2.07l228.616-235.1c7.486-7.7,7-19.253-1.087-25.809s-20.71-5.629-28.195,2.069l-228.616,235.1C711.065,1133.51,711.552,1145.06,719.638,1151.62Z"/>
    <path class="cls-3" d="M975.67,912.267c-8.051,6.583-20.66,5.659-28.164-2.065L718.34,674.325c-7.5-7.723-7.061-19.321.99-25.905s20.66-5.658,28.164,2.065L976.66,886.362C984.164,894.086,983.721,905.684,975.67,912.267Z"/>
    <path class="cls-4" d="M535.829,1201.4c10.58,6.43,22.836-2.61,27.381-20.19L703.1,639.963c4.617-17.863-.266-37.685-10.913-44.268s-23.023,2.578-27.633,20.457L524.878,1157.89C520.341,1175.49,525.246,1194.97,535.829,1201.4Z"/>
    <path class="cls-5" d="M453,1482H739a21,21,0,0,1,21,21v65a21,21,0,0,1-21,21H453a21,21,0,0,1-21-21v-65A21,21,0,0,1,453,1482Z"/>
    <path id="Line_1-2" data-name="Line 1" class="cls-6" d="M188.572,1382.18v-1.36H1011.43v1.36H188.572Zm0,0v-1.36H1011.43v1.36H188.572Zm0,0v-1.36H1011.43v1.36H188.572Zm0,0v-1.36H1011.43v1.36H188.572Z"/>
    <path id="Line_1-3" data-name="Line 1" class="cls-6" d="M188.572,418.175v-1.35H1011.43v1.35H188.572Zm0,0v-1.35H1011.43v1.35H188.572Zm0,0v-1.35H1011.43v1.35H188.572Zm0,0v-1.35H1011.43v1.35H188.572Z"/>
  </g>
</svg>
